<svg width="106" height="40" viewBox="0 0 106 40" fill="none" xmlns="http://www.w3.org/2000/svg">
<path d="M79.6869 18.4503H78.847C78.792 18.4496 78.7392 18.429 78.6981 18.3924C78.6571 18.3559 78.6307 18.3057 78.6236 18.2512C78.4294 16.9477 77.4706 16.1394 76.104 16.1394C74.2931 16.1394 73.1911 17.5958 73.1911 20.0063C73.1911 22.4167 74.2858 23.8731 76.0724 23.8731C77.4415 23.8731 78.4173 23.0454 78.6649 21.6885C78.6735 21.6359 78.7004 21.5881 78.7408 21.5535C78.7812 21.5188 78.8326 21.4996 78.8858 21.4991H79.7378C79.7689 21.499 79.7996 21.5054 79.828 21.5178C79.8565 21.5302 79.882 21.5484 79.903 21.5712C79.924 21.5941 79.9401 21.621 79.9501 21.6504C79.9601 21.6798 79.9639 21.711 79.9612 21.7419C79.6747 23.7445 78.262 24.9898 76.0773 24.9898C73.4945 24.9898 71.8997 23.0988 71.8997 19.9893C71.8997 16.8797 73.5066 14.9863 76.1161 14.9863C78.3323 14.9863 79.7184 16.3287 79.9223 18.1905C79.9284 18.2239 79.9267 18.2582 79.9174 18.2908C79.9081 18.3234 79.8914 18.3534 79.8686 18.3785C79.8459 18.4036 79.8176 18.4231 79.7861 18.4356C79.7546 18.448 79.7206 18.4531 79.6869 18.4503V18.4503Z" fill="#A4B1CD"/>
<path d="M86.3307 16.5324V24.6011C86.3301 24.6606 86.306 24.7174 86.2638 24.7592C86.2215 24.801 86.1644 24.8245 86.105 24.8245H85.2966C85.2374 24.8245 85.1806 24.8009 85.1387 24.759C85.0969 24.7172 85.0733 24.6604 85.0733 24.6011V16.5324C85.0727 16.4729 85.0486 16.4161 85.0064 16.3743C84.9641 16.3325 84.907 16.309 84.8476 16.309H82.022C81.9622 16.309 81.9048 16.2853 81.8624 16.2429C81.8201 16.2006 81.7963 16.1432 81.7963 16.0833V15.4255C81.7963 15.3656 81.8201 15.3082 81.8624 15.2658C81.9048 15.2235 81.9622 15.1997 82.022 15.1997H89.4014C89.431 15.1997 89.4602 15.2056 89.4875 15.2169C89.5147 15.2283 89.5394 15.245 89.5602 15.266C89.581 15.287 89.5974 15.3119 89.6085 15.3392C89.6195 15.3666 89.6251 15.3959 89.6248 15.4255V16.0833C89.6248 16.1427 89.6013 16.1998 89.5595 16.2421C89.5177 16.2843 89.4609 16.3084 89.4014 16.309H86.5735C86.5426 16.3063 86.5114 16.3101 86.482 16.3201C86.4527 16.3301 86.4257 16.3462 86.4029 16.3672C86.38 16.3882 86.3618 16.4137 86.3494 16.4422C86.337 16.4706 86.3306 16.5013 86.3307 16.5324V16.5324Z" fill="#A4B1CD"/>
<path d="M93.3849 16.5324V19.37C93.3849 19.4293 93.4084 19.4861 93.4503 19.5279C93.4921 19.5698 93.5489 19.5933 93.6082 19.5933H97.6474C97.7073 19.5933 97.7647 19.6171 97.807 19.6595C97.8494 19.7018 97.8732 19.7592 97.8732 19.8191V20.4769C97.8732 20.5368 97.8494 20.5942 97.807 20.6366C97.7647 20.6789 97.7073 20.7027 97.6474 20.7027H93.613C93.5538 20.7027 93.497 20.7262 93.4551 20.7681C93.4132 20.81 93.3897 20.8668 93.3897 20.926V24.6011C93.3891 24.6606 93.365 24.7174 93.3227 24.7592C93.2805 24.801 93.2234 24.8245 93.164 24.8245H92.3702C92.3107 24.8245 92.2537 24.801 92.2114 24.7592C92.1691 24.7174 92.1451 24.6606 92.1444 24.6011V15.4255C92.1444 15.3656 92.1682 15.3082 92.2106 15.2658C92.2529 15.2235 92.3103 15.1997 92.3702 15.1997H97.9533C97.9828 15.1997 98.012 15.2056 98.0393 15.2169C98.0665 15.2283 98.0913 15.245 98.1121 15.266C98.1328 15.287 98.1492 15.3119 98.1603 15.3392C98.1714 15.3666 98.1769 15.3959 98.1766 15.4255V16.0833C98.1766 16.1427 98.1531 16.1998 98.1113 16.2421C98.0695 16.2843 98.0127 16.3084 97.9533 16.309H93.613C93.5833 16.3084 93.5537 16.3137 93.5261 16.3246C93.4984 16.3356 93.4732 16.3519 93.452 16.3727C93.4307 16.3935 93.4138 16.4183 93.4023 16.4458C93.3908 16.4732 93.3848 16.5026 93.3849 16.5324V16.5324Z" fill="#A4B1CD"/>
<path d="M44.2367 24.5914V21.0546C44.2367 20.9952 44.2132 20.9381 44.1714 20.8958C44.1296 20.8536 44.0728 20.8295 44.0133 20.8289H40.9062C40.8468 20.8295 40.79 20.8536 40.7482 20.8958C40.7064 20.9381 40.6829 20.9952 40.6829 21.0546V24.5914C40.6829 24.621 40.6771 24.6504 40.6657 24.6778C40.6544 24.7052 40.6378 24.7301 40.6168 24.751C40.5958 24.772 40.5709 24.7886 40.5435 24.8C40.5162 24.8113 40.4868 24.8171 40.4572 24.8171H38.5686C38.539 24.8171 38.5096 24.8113 38.4822 24.8C38.4548 24.7886 38.43 24.772 38.409 24.751C38.388 24.7301 38.3714 24.7052 38.3601 24.6778C38.3487 24.6504 38.3429 24.621 38.3429 24.5914V15.4157C38.3435 15.3563 38.3676 15.2995 38.4098 15.2576C38.4521 15.2158 38.5092 15.1924 38.5686 15.1924H40.4523C40.5118 15.1924 40.5688 15.2158 40.6111 15.2576C40.6534 15.2995 40.6774 15.3563 40.6781 15.4157V18.6175C40.6781 18.6767 40.7016 18.7335 40.7435 18.7754C40.7853 18.8173 40.8421 18.8408 40.9014 18.8408H44.0085C44.0677 18.8408 44.1245 18.8173 44.1664 18.7754C44.2083 18.7335 44.2318 18.6767 44.2318 18.6175V15.4157C44.2325 15.3563 44.2565 15.2995 44.2988 15.2576C44.341 15.2158 44.3981 15.1924 44.4576 15.1924H46.3461C46.4056 15.1924 46.4626 15.2158 46.5049 15.2576C46.5471 15.2995 46.5712 15.3563 46.5718 15.4157V24.5914C46.5718 24.621 46.566 24.6504 46.5547 24.6778C46.5433 24.7052 46.5267 24.7301 46.5057 24.751C46.4848 24.772 46.4599 24.7886 46.4325 24.8C46.4051 24.8113 46.3757 24.8171 46.3461 24.8171H44.4576C44.3985 24.8159 44.3424 24.7915 44.3011 24.7493C44.2598 24.7071 44.2367 24.6504 44.2367 24.5914Z" fill="white"/>
<path d="M54.2547 17.4038V24.5938C54.2547 24.653 54.2311 24.7099 54.1893 24.7518C54.1474 24.7936 54.0906 24.8171 54.0313 24.8171H52.1404C52.0811 24.8171 52.0243 24.7936 51.9825 24.7518C51.9406 24.7099 51.9171 24.653 51.9171 24.5938V17.4038C51.9171 17.3443 51.8936 17.2873 51.8518 17.245C51.81 17.2027 51.7532 17.1787 51.6937 17.178H49.191C49.1318 17.178 49.075 17.1545 49.0331 17.1126C48.9912 17.0707 48.9677 17.0139 48.9677 16.9547V15.4157C48.9677 15.3565 48.9912 15.2997 49.0331 15.2578C49.075 15.2159 49.1318 15.1924 49.191 15.1924H56.9758C57.0353 15.1924 57.0923 15.2158 57.1346 15.2576C57.1769 15.2995 57.2009 15.3563 57.2016 15.4157V16.9547C57.2009 17.0142 57.1769 17.071 57.1346 17.1128C57.0923 17.1546 57.0353 17.178 56.9758 17.178H54.4804C54.4205 17.178 54.3631 17.2018 54.3208 17.2441C54.2785 17.2865 54.2547 17.3439 54.2547 17.4038Z" fill="white"/>
<path d="M63.3551 15.1924C65.7485 15.1924 66.8554 16.1925 66.8554 17.6659C66.8554 18.7874 66.3287 19.4768 65.2218 19.87V19.8967C66.4792 20.1808 67.1006 20.9235 67.1006 22.1397C67.1006 23.7758 65.8019 24.8099 63.5857 24.8099H59.8207C59.7615 24.8099 59.7047 24.7863 59.6628 24.7445C59.6209 24.7026 59.5974 24.6458 59.5974 24.5866V15.4157C59.5974 15.3565 59.6209 15.2997 59.6628 15.2578C59.7047 15.2159 59.7615 15.1924 59.8207 15.1924H63.3551ZM61.8986 18.8602C61.8986 18.9201 61.9224 18.9775 61.9647 19.0199C62.0071 19.0622 62.0645 19.086 62.1244 19.086H63.1172C64.1585 19.086 64.6028 18.7461 64.6028 18.03C64.6028 17.314 64.1707 17.0033 63.1973 17.0033H62.1244C62.0649 17.0032 62.0079 17.0267 61.9656 17.0685C61.9233 17.1103 61.8993 17.1671 61.8986 17.2266V18.8602ZM61.8986 22.7684C61.8993 22.8278 61.9233 22.8846 61.9656 22.9265C62.0079 22.9683 62.0649 22.9917 62.1244 22.9917H63.1706C64.2654 22.9917 64.6974 22.6543 64.6974 21.9237C64.6974 21.1542 64.2532 20.8022 63.1293 20.8022H62.1244C62.0649 20.8022 62.0079 20.8256 61.9656 20.8674C61.9233 20.9092 61.8993 20.9661 61.8986 21.0255V22.7684Z" fill="white"/>
<path d="M18.5132 32.0025C18.3573 32.0028 18.204 31.9617 18.069 31.8836L8.47096 26.3417C8.32893 26.2658 8.21013 26.1528 8.1272 26.0148C8.04428 25.8767 8.00033 25.7187 8.00004 25.5577V14.4862C7.99721 14.3344 8.03157 14.1843 8.10011 14.0489C8.16866 13.9135 8.26931 13.7969 8.39328 13.7094C8.53128 13.616 8.69278 13.5632 8.85933 13.5572C9.02588 13.5512 9.19075 13.5922 9.33513 13.6754L18.9575 19.2318C19.0925 19.3098 19.2047 19.4219 19.2827 19.557C19.3606 19.6921 19.4017 19.8453 19.4017 20.0013V31.0971C19.4059 31.2961 19.3454 31.4912 19.2293 31.653C19.1448 31.7623 19.0362 31.8506 18.9121 31.9112C18.7879 31.9718 18.6514 32.0031 18.5132 32.0025V32.0025ZM10.2308 25.0285L16.7558 28.7959C16.82 28.8354 16.8937 28.8567 16.9691 28.8577C17.0445 28.8586 17.1188 28.8392 17.184 28.8014C17.2492 28.7635 17.303 28.7087 17.3395 28.6428C17.3761 28.5769 17.3942 28.5023 17.3918 28.4269V20.9019C17.3918 20.8286 17.3725 20.7565 17.3359 20.6931C17.2992 20.6296 17.2465 20.5768 17.183 20.5402L10.6484 16.7752C10.5849 16.7386 10.5129 16.7193 10.4396 16.7193C10.3663 16.7193 10.2943 16.7386 10.2308 16.7753C10.1673 16.8119 10.1146 16.8646 10.078 16.9281C10.0413 16.9916 10.0221 17.0636 10.0221 17.1369V24.662C10.0212 24.7361 10.0401 24.8091 10.0768 24.8735C10.1135 24.9379 10.1666 24.9914 10.2308 25.0285Z" fill="#9FEF00"/>
<path d="M18.5132 20.902C18.3572 20.9023 18.2039 20.8613 18.069 20.7831L8.44663 15.2291C8.31158 15.1508 8.19947 15.0384 8.12154 14.9032C8.04361 14.7679 8.00259 14.6145 8.00259 14.4584C8.00259 14.3023 8.04361 14.1489 8.12154 14.0137C8.19947 13.8784 8.31158 13.766 8.44663 13.6877L18.0495 8.14346C18.1014 8.11129 18.1568 8.08522 18.2146 8.06578C18.2927 8.03727 18.3744 8.0201 18.4574 8.0148C18.6121 8.00411 18.767 8.03426 18.9064 8.1022L18.9793 8.14103L28.587 13.6877C28.7221 13.766 28.8342 13.8784 28.9121 14.0137C28.99 14.1489 29.0311 14.3023 29.0311 14.4584C29.0311 14.6145 28.99 14.7679 28.9121 14.9032C28.8342 15.0384 28.7221 15.1508 28.587 15.2291L18.9647 20.7831C18.8276 20.8625 18.6716 20.9036 18.5132 20.902V20.902ZM11.7674 14.8092L18.3044 18.5814C18.3678 18.6183 18.4398 18.6377 18.5132 18.6377C18.5865 18.6377 18.6586 18.6183 18.7219 18.5814L25.259 14.8092C25.3231 14.7724 25.3763 14.7193 25.4133 14.6554C25.4503 14.5915 25.4697 14.5189 25.4697 14.4451C25.4697 14.3712 25.4503 14.2986 25.4133 14.2347C25.3763 14.1708 25.3231 14.1178 25.259 14.081L18.7219 10.3063C18.6582 10.2706 18.5863 10.2518 18.5132 10.2518C18.4401 10.2518 18.3682 10.2706 18.3044 10.3063L11.7674 14.081C11.7033 14.1178 11.6501 14.1708 11.6131 14.2347C11.5761 14.2986 11.5566 14.3712 11.5566 14.4451C11.5566 14.5189 11.5761 14.5915 11.6131 14.6554C11.6501 14.7193 11.7033 14.7724 11.7674 14.8092V14.8092Z" fill="#9FEF00"/>
<path d="M18.5132 32.0024C18.3743 32.0019 18.2373 31.9691 18.1131 31.9068C17.9888 31.8445 17.8807 31.7543 17.7972 31.6432C17.6865 31.4829 17.6296 31.2917 17.6345 31.097V20.0109C17.6345 19.855 17.6755 19.7017 17.7535 19.5667C17.8315 19.4316 17.9437 19.3194 18.0787 19.2414L27.7011 13.685C27.831 13.6106 27.9776 13.57 28.1273 13.5671C28.2771 13.5641 28.4251 13.5988 28.5579 13.6681C28.7063 13.7472 28.83 13.8656 28.9156 14.0103C29.0012 14.155 29.0454 14.3204 29.0434 14.4885V25.5673C29.0431 25.7284 28.9992 25.8863 28.9163 26.0244C28.8333 26.1624 28.7145 26.2754 28.5725 26.3514L18.9745 31.8932C18.8335 31.9709 18.6741 32.0087 18.5132 32.0024V32.0024ZM19.6469 20.8969V28.422C19.6471 28.4949 19.6664 28.5665 19.7029 28.6297C19.7394 28.6928 19.7919 28.7453 19.855 28.7819C19.9181 28.8185 19.9897 28.8379 20.0626 28.8382C20.1355 28.8385 20.2073 28.8197 20.2707 28.7837L26.7956 25.0284C26.8591 24.9918 26.9118 24.939 26.9485 24.8756C26.9851 24.8121 27.0044 24.74 27.0044 24.6667V17.1417C27.0058 17.0673 26.9873 16.9938 26.9507 16.929C26.9142 16.8641 26.861 16.8102 26.7966 16.7728C26.7323 16.7354 26.6591 16.7159 26.5846 16.7163C26.5102 16.7168 26.4372 16.7371 26.3733 16.7752L19.8483 20.5425C19.7864 20.5797 19.7352 20.6324 19.6999 20.6954C19.6646 20.7584 19.6463 20.8296 19.6469 20.9018V20.8969Z" fill="#9FEF00"/>
</svg>
